<mxfile host="Electron" agent="Mozilla/5.0 (Windows NT 10.0; Win64; x64) AppleWebKit/537.36 (KHTML, like Gecko) draw.io/26.0.16 Chrome/132.0.6834.196 Electron/34.2.0 Safari/537.36" version="26.0.16">
  <diagram name="Page-1" id="dajdHq9MhlpOEaMz0Bhz">
    <mxGraphModel dx="1430" dy="836" grid="1" gridSize="10" guides="1" tooltips="1" connect="1" arrows="1" fold="1" page="1" pageScale="1" pageWidth="850" pageHeight="1100" math="0" shadow="0">
      <root>
        <mxCell id="0" />
        <mxCell id="1" parent="0" />
        <mxCell id="7hFAT_4vR7-1dg3_co3H-1" value="&lt;font style=&quot;&quot;&gt;&lt;b style=&quot;&quot;&gt;&lt;span style=&quot;font-size: 36px;&quot;&gt;Data Flow &lt;/span&gt;&lt;font style=&quot;font-size: 18px;&quot;&gt;(Data Lineage)&lt;/font&gt;&lt;/b&gt;&lt;/font&gt;" style="text;html=1;align=center;verticalAlign=middle;resizable=0;points=[];autosize=1;strokeColor=none;fillColor=none;" parent="1" vertex="1">
          <mxGeometry x="47.50000000000003" y="42.53" width="330" height="60" as="geometry" />
        </mxCell>
        <mxCell id="7hFAT_4vR7-1dg3_co3H-2" value="" style="rounded=0;whiteSpace=wrap;html=1;dashed=1;fillColor=none;strokeColor=#8C7764;" parent="1" vertex="1">
          <mxGeometry x="10" y="160" width="200" height="540" as="geometry" />
        </mxCell>
        <mxCell id="7hFAT_4vR7-1dg3_co3H-3" value="&lt;font style=&quot;font-size: 25px;&quot;&gt;Sources&lt;/font&gt;" style="rounded=0;whiteSpace=wrap;html=1;fillColor=default;strokeColor=none;" parent="1" vertex="1">
          <mxGeometry x="62.5" y="140" width="95" height="40" as="geometry" />
        </mxCell>
        <mxCell id="7hFAT_4vR7-1dg3_co3H-4" value="" style="rounded=0;whiteSpace=wrap;html=1;dashed=1;fillColor=none;strokeColor=#8C7764;" parent="1" vertex="1">
          <mxGeometry x="250" y="160" width="610" height="540" as="geometry" />
        </mxCell>
        <mxCell id="7hFAT_4vR7-1dg3_co3H-5" value="&lt;font style=&quot;font-size: 25px;&quot;&gt;Data Warehouse&lt;/font&gt;" style="rounded=0;whiteSpace=wrap;html=1;fillColor=default;strokeColor=none;" parent="1" vertex="1">
          <mxGeometry x="436.88" y="140" width="197.5" height="40" as="geometry" />
        </mxCell>
        <mxCell id="7hFAT_4vR7-1dg3_co3H-9" value="&lt;b&gt;&lt;font style=&quot;font-size: 20px;&quot;&gt;Bronze Layer&lt;/font&gt;&lt;/b&gt;" style="rounded=0;whiteSpace=wrap;html=1;fillColor=#ffe6cc;strokeColor=#d79b00;" parent="1" vertex="1">
          <mxGeometry x="270" y="200" width="160" height="40" as="geometry" />
        </mxCell>
        <mxCell id="7hFAT_4vR7-1dg3_co3H-10" value="" style="rounded=0;whiteSpace=wrap;html=1;fillColor=none;strokeColor=#d79b00;" parent="1" vertex="1">
          <mxGeometry x="270" y="250" width="160" height="430" as="geometry" />
        </mxCell>
        <mxCell id="7hFAT_4vR7-1dg3_co3H-11" value="&lt;b&gt;&lt;font style=&quot;font-size: 20px;&quot;&gt;Silver Layer&lt;/font&gt;&lt;/b&gt;" style="rounded=0;whiteSpace=wrap;html=1;fillColor=#f5f5f5;strokeColor=#666666;fontColor=#333333;" parent="1" vertex="1">
          <mxGeometry x="460" y="200" width="190" height="40" as="geometry" />
        </mxCell>
        <mxCell id="7hFAT_4vR7-1dg3_co3H-12" value="" style="rounded=0;whiteSpace=wrap;html=1;fillColor=none;strokeColor=#666666;fontColor=#333333;" parent="1" vertex="1">
          <mxGeometry x="461.25" y="250" width="188.75" height="430" as="geometry" />
        </mxCell>
        <mxCell id="7hFAT_4vR7-1dg3_co3H-13" value="&lt;b&gt;&lt;font style=&quot;font-size: 20px;&quot;&gt;Gold Layer&lt;/font&gt;&lt;/b&gt;" style="rounded=0;whiteSpace=wrap;html=1;fillColor=#fff2cc;strokeColor=#d6b656;" parent="1" vertex="1">
          <mxGeometry x="671.25" y="200" width="168.75" height="40" as="geometry" />
        </mxCell>
        <mxCell id="7hFAT_4vR7-1dg3_co3H-14" value="" style="rounded=0;whiteSpace=wrap;html=1;fillColor=none;strokeColor=#d6b656;" parent="1" vertex="1">
          <mxGeometry x="671.25" y="250" width="168.75" height="430" as="geometry" />
        </mxCell>
        <mxCell id="7hFAT_4vR7-1dg3_co3H-15" value="&lt;b&gt;CRM&lt;/b&gt;" style="image;aspect=fixed;html=1;points=[];align=center;fontSize=12;image=img/lib/azure2/general/Folder_Blank.svg;" parent="1" vertex="1">
          <mxGeometry x="69.88" y="325" width="69" height="56.00000000000001" as="geometry" />
        </mxCell>
        <mxCell id="8Ro6if_UnG99gxaWc1OO-6" style="edgeStyle=orthogonalEdgeStyle;rounded=0;orthogonalLoop=1;jettySize=auto;html=1;entryX=0;entryY=0.5;entryDx=0;entryDy=0;fillColor=#f5f5f5;strokeColor=#666666;" edge="1" parent="1">
          <mxGeometry relative="1" as="geometry">
            <mxPoint x="150.11000000000013" y="359" as="sourcePoint" />
            <mxPoint x="290" y="359" as="targetPoint" />
            <Array as="points">
              <mxPoint x="190" y="359" />
              <mxPoint x="190" y="359" />
            </Array>
          </mxGeometry>
        </mxCell>
        <mxCell id="7hFAT_4vR7-1dg3_co3H-16" value="" style="image;aspect=fixed;html=1;points=[];align=center;fontSize=12;image=img/lib/azure2/general/Files.svg;" parent="1" vertex="1">
          <mxGeometry x="109.88" y="345" width="40.23" height="44" as="geometry" />
        </mxCell>
        <mxCell id="7hFAT_4vR7-1dg3_co3H-17" value="&lt;b&gt;ERP&lt;/b&gt;" style="image;aspect=fixed;html=1;points=[];align=center;fontSize=12;image=img/lib/azure2/general/Folder_Blank.svg;" parent="1" vertex="1">
          <mxGeometry x="68.11" y="470" width="69" height="56.00000000000001" as="geometry" />
        </mxCell>
        <mxCell id="7hFAT_4vR7-1dg3_co3H-18" value="" style="image;aspect=fixed;html=1;points=[];align=center;fontSize=12;image=img/lib/azure2/general/Files.svg;" parent="1" vertex="1">
          <mxGeometry x="109.87999999999998" y="490" width="40.23" height="44" as="geometry" />
        </mxCell>
        <mxCell id="8Ro6if_UnG99gxaWc1OO-21" style="edgeStyle=orthogonalEdgeStyle;rounded=0;orthogonalLoop=1;jettySize=auto;html=1;entryX=0;entryY=0.5;entryDx=0;entryDy=0;fillColor=#f5f5f5;strokeColor=#666666;" edge="1" parent="1" source="8Ro6if_UnG99gxaWc1OO-2" target="8Ro6if_UnG99gxaWc1OO-13">
          <mxGeometry relative="1" as="geometry" />
        </mxCell>
        <mxCell id="8Ro6if_UnG99gxaWc1OO-2" value="crm_sales_details" style="rounded=1;whiteSpace=wrap;html=1;fillColor=#ffe6cc;strokeColor=#d79b00;" vertex="1" parent="1">
          <mxGeometry x="290" y="302" width="120" height="26" as="geometry" />
        </mxCell>
        <mxCell id="8Ro6if_UnG99gxaWc1OO-3" value="crm_cust_info" style="rounded=1;whiteSpace=wrap;html=1;fillColor=#ffe6cc;strokeColor=#d79b00;" vertex="1" parent="1">
          <mxGeometry x="290" y="344" width="120" height="26" as="geometry" />
        </mxCell>
        <mxCell id="8Ro6if_UnG99gxaWc1OO-4" value="crm_prd_info" style="rounded=1;whiteSpace=wrap;html=1;fillColor=#ffe6cc;strokeColor=#d79b00;" vertex="1" parent="1">
          <mxGeometry x="290" y="390" width="120" height="26" as="geometry" />
        </mxCell>
        <mxCell id="8Ro6if_UnG99gxaWc1OO-7" value="" style="endArrow=classic;startArrow=classic;html=1;rounded=0;fillColor=#f5f5f5;strokeColor=#666666;" edge="1" parent="1">
          <mxGeometry width="50" height="50" relative="1" as="geometry">
            <mxPoint x="290" y="313" as="sourcePoint" />
            <mxPoint x="290" y="400" as="targetPoint" />
            <Array as="points">
              <mxPoint x="220" y="313" />
              <mxPoint x="220" y="401" />
            </Array>
          </mxGeometry>
        </mxCell>
        <mxCell id="8Ro6if_UnG99gxaWc1OO-8" style="edgeStyle=orthogonalEdgeStyle;rounded=0;orthogonalLoop=1;jettySize=auto;html=1;entryX=0;entryY=0.5;entryDx=0;entryDy=0;fillColor=#f5f5f5;strokeColor=#666666;" edge="1" parent="1">
          <mxGeometry relative="1" as="geometry">
            <mxPoint x="150.11000000000013" y="519" as="sourcePoint" />
            <mxPoint x="290" y="519" as="targetPoint" />
            <Array as="points">
              <mxPoint x="190" y="519" />
              <mxPoint x="190" y="519" />
            </Array>
          </mxGeometry>
        </mxCell>
        <mxCell id="8Ro6if_UnG99gxaWc1OO-9" value="erp_cust_az12" style="rounded=1;whiteSpace=wrap;html=1;fillColor=#ffe6cc;strokeColor=#d79b00;" vertex="1" parent="1">
          <mxGeometry x="290" y="462" width="120" height="26" as="geometry" />
        </mxCell>
        <mxCell id="8Ro6if_UnG99gxaWc1OO-10" value="erp_loc_a101" style="rounded=1;whiteSpace=wrap;html=1;fillColor=#ffe6cc;strokeColor=#d79b00;" vertex="1" parent="1">
          <mxGeometry x="290" y="504" width="120" height="26" as="geometry" />
        </mxCell>
        <mxCell id="8Ro6if_UnG99gxaWc1OO-11" value="erp_px_cat_g1v2" style="rounded=1;whiteSpace=wrap;html=1;fillColor=#ffe6cc;strokeColor=#d79b00;" vertex="1" parent="1">
          <mxGeometry x="290" y="550" width="120" height="26" as="geometry" />
        </mxCell>
        <mxCell id="8Ro6if_UnG99gxaWc1OO-12" value="" style="endArrow=classic;startArrow=classic;html=1;rounded=0;fillColor=#f5f5f5;strokeColor=#666666;" edge="1" parent="1">
          <mxGeometry width="50" height="50" relative="1" as="geometry">
            <mxPoint x="290" y="473" as="sourcePoint" />
            <mxPoint x="290" y="560" as="targetPoint" />
            <Array as="points">
              <mxPoint x="220" y="473" />
              <mxPoint x="220" y="561" />
            </Array>
          </mxGeometry>
        </mxCell>
        <mxCell id="8Ro6if_UnG99gxaWc1OO-13" value="crm_sales_details" style="rounded=1;whiteSpace=wrap;html=1;fillColor=#f5f5f5;strokeColor=#666666;fontColor=#333333;" vertex="1" parent="1">
          <mxGeometry x="495" y="302" width="120" height="26" as="geometry" />
        </mxCell>
        <mxCell id="8Ro6if_UnG99gxaWc1OO-14" value="crm_cust_info" style="rounded=1;whiteSpace=wrap;html=1;fillColor=#f5f5f5;strokeColor=#666666;fontColor=#333333;" vertex="1" parent="1">
          <mxGeometry x="495" y="344" width="120" height="26" as="geometry" />
        </mxCell>
        <mxCell id="8Ro6if_UnG99gxaWc1OO-15" value="crm_prd_info" style="rounded=1;whiteSpace=wrap;html=1;fillColor=#f5f5f5;strokeColor=#666666;fontColor=#333333;" vertex="1" parent="1">
          <mxGeometry x="495" y="390" width="120" height="26" as="geometry" />
        </mxCell>
        <mxCell id="8Ro6if_UnG99gxaWc1OO-16" value="erp_cust_az12" style="rounded=1;whiteSpace=wrap;html=1;fillColor=#f5f5f5;strokeColor=#666666;fontColor=#333333;" vertex="1" parent="1">
          <mxGeometry x="495" y="462" width="120" height="26" as="geometry" />
        </mxCell>
        <mxCell id="8Ro6if_UnG99gxaWc1OO-17" value="erp_loc_a101" style="rounded=1;whiteSpace=wrap;html=1;fillColor=#f5f5f5;strokeColor=#666666;fontColor=#333333;" vertex="1" parent="1">
          <mxGeometry x="495" y="504" width="120" height="26" as="geometry" />
        </mxCell>
        <mxCell id="8Ro6if_UnG99gxaWc1OO-18" value="erp_px_cat_g1v2" style="rounded=1;whiteSpace=wrap;html=1;fillColor=#f5f5f5;strokeColor=#666666;fontColor=#333333;" vertex="1" parent="1">
          <mxGeometry x="495" y="550" width="120" height="26" as="geometry" />
        </mxCell>
        <mxCell id="8Ro6if_UnG99gxaWc1OO-22" style="edgeStyle=orthogonalEdgeStyle;rounded=0;orthogonalLoop=1;jettySize=auto;html=1;entryX=0;entryY=0.5;entryDx=0;entryDy=0;fillColor=#f5f5f5;strokeColor=#666666;" edge="1" parent="1">
          <mxGeometry relative="1" as="geometry">
            <mxPoint x="410" y="361" as="sourcePoint" />
            <mxPoint x="495" y="361" as="targetPoint" />
          </mxGeometry>
        </mxCell>
        <mxCell id="8Ro6if_UnG99gxaWc1OO-23" style="edgeStyle=orthogonalEdgeStyle;rounded=0;orthogonalLoop=1;jettySize=auto;html=1;entryX=0;entryY=0.5;entryDx=0;entryDy=0;fillColor=#f5f5f5;strokeColor=#666666;" edge="1" parent="1">
          <mxGeometry relative="1" as="geometry">
            <mxPoint x="410" y="401.5" as="sourcePoint" />
            <mxPoint x="495" y="401.5" as="targetPoint" />
          </mxGeometry>
        </mxCell>
        <mxCell id="8Ro6if_UnG99gxaWc1OO-24" style="edgeStyle=orthogonalEdgeStyle;rounded=0;orthogonalLoop=1;jettySize=auto;html=1;entryX=0;entryY=0.5;entryDx=0;entryDy=0;fillColor=#f5f5f5;strokeColor=#666666;" edge="1" parent="1">
          <mxGeometry relative="1" as="geometry">
            <mxPoint x="410" y="480" as="sourcePoint" />
            <mxPoint x="495" y="480" as="targetPoint" />
          </mxGeometry>
        </mxCell>
        <mxCell id="8Ro6if_UnG99gxaWc1OO-25" style="edgeStyle=orthogonalEdgeStyle;rounded=0;orthogonalLoop=1;jettySize=auto;html=1;entryX=0;entryY=0.5;entryDx=0;entryDy=0;fillColor=#f5f5f5;strokeColor=#666666;" edge="1" parent="1">
          <mxGeometry relative="1" as="geometry">
            <mxPoint x="410" y="517.5" as="sourcePoint" />
            <mxPoint x="495" y="517.5" as="targetPoint" />
          </mxGeometry>
        </mxCell>
        <mxCell id="8Ro6if_UnG99gxaWc1OO-26" style="edgeStyle=orthogonalEdgeStyle;rounded=0;orthogonalLoop=1;jettySize=auto;html=1;entryX=0;entryY=0.5;entryDx=0;entryDy=0;fillColor=#f5f5f5;strokeColor=#666666;" edge="1" parent="1">
          <mxGeometry relative="1" as="geometry">
            <mxPoint x="410" y="560.5" as="sourcePoint" />
            <mxPoint x="495" y="560.5" as="targetPoint" />
          </mxGeometry>
        </mxCell>
        <mxCell id="8Ro6if_UnG99gxaWc1OO-27" value="fact_sales" style="rounded=1;whiteSpace=wrap;html=1;fillColor=#fff2cc;strokeColor=#d6b656;" vertex="1" parent="1">
          <mxGeometry x="695.62" y="344" width="120" height="26" as="geometry" />
        </mxCell>
        <mxCell id="8Ro6if_UnG99gxaWc1OO-28" value="dim_customers" style="rounded=1;whiteSpace=wrap;html=1;fillColor=#fff2cc;strokeColor=#d6b656;" vertex="1" parent="1">
          <mxGeometry x="695.62" y="429" width="120" height="26" as="geometry" />
        </mxCell>
        <mxCell id="8Ro6if_UnG99gxaWc1OO-29" value="dim_products" style="rounded=1;whiteSpace=wrap;html=1;fillColor=#fff2cc;strokeColor=#d6b656;" vertex="1" parent="1">
          <mxGeometry x="695.63" y="508" width="120" height="26" as="geometry" />
        </mxCell>
        <mxCell id="8Ro6if_UnG99gxaWc1OO-33" style="edgeStyle=orthogonalEdgeStyle;rounded=0;orthogonalLoop=1;jettySize=auto;html=1;entryX=0;entryY=0.5;entryDx=0;entryDy=0;fillColor=#f5f5f5;strokeColor=#666666;" edge="1" parent="1" target="8Ro6if_UnG99gxaWc1OO-27">
          <mxGeometry relative="1" as="geometry">
            <mxPoint x="615" y="314.5" as="sourcePoint" />
            <mxPoint x="700" y="314.5" as="targetPoint" />
          </mxGeometry>
        </mxCell>
        <mxCell id="8Ro6if_UnG99gxaWc1OO-34" value="" style="endArrow=classic;html=1;rounded=0;exitX=1;exitY=0.5;exitDx=0;exitDy=0;entryX=0;entryY=0;entryDx=0;entryDy=0;fillColor=#f5f5f5;strokeColor=#666666;" edge="1" parent="1" source="8Ro6if_UnG99gxaWc1OO-14" target="8Ro6if_UnG99gxaWc1OO-28">
          <mxGeometry width="50" height="50" relative="1" as="geometry">
            <mxPoint x="660" y="450" as="sourcePoint" />
            <mxPoint x="710" y="400" as="targetPoint" />
          </mxGeometry>
        </mxCell>
        <mxCell id="8Ro6if_UnG99gxaWc1OO-36" style="edgeStyle=orthogonalEdgeStyle;rounded=0;orthogonalLoop=1;jettySize=auto;html=1;fillColor=#f5f5f5;strokeColor=#666666;entryX=0;entryY=0.5;entryDx=0;entryDy=0;" edge="1" parent="1" target="8Ro6if_UnG99gxaWc1OO-29">
          <mxGeometry relative="1" as="geometry">
            <mxPoint x="614.12" y="398" as="sourcePoint" />
            <mxPoint x="695.6199999999999" y="440" as="targetPoint" />
            <Array as="points">
              <mxPoint x="614" y="399" />
              <mxPoint x="630" y="399" />
              <mxPoint x="630" y="470" />
              <mxPoint x="680" y="470" />
              <mxPoint x="680" y="521" />
            </Array>
          </mxGeometry>
        </mxCell>
        <mxCell id="8Ro6if_UnG99gxaWc1OO-39" value="" style="endArrow=classic;html=1;rounded=0;entryX=0;entryY=0.5;entryDx=0;entryDy=0;fillColor=#f5f5f5;strokeColor=#666666;" edge="1" parent="1" target="8Ro6if_UnG99gxaWc1OO-28">
          <mxGeometry width="50" height="50" relative="1" as="geometry">
            <mxPoint x="615" y="479" as="sourcePoint" />
            <mxPoint x="665" y="429" as="targetPoint" />
            <Array as="points">
              <mxPoint x="650" y="442" />
            </Array>
          </mxGeometry>
        </mxCell>
        <mxCell id="8Ro6if_UnG99gxaWc1OO-40" value="" style="endArrow=classic;html=1;rounded=0;entryX=0.25;entryY=1;entryDx=0;entryDy=0;fillColor=#f5f5f5;strokeColor=#666666;" edge="1" parent="1" target="8Ro6if_UnG99gxaWc1OO-28">
          <mxGeometry width="50" height="50" relative="1" as="geometry">
            <mxPoint x="615" y="520" as="sourcePoint" />
            <mxPoint x="665" y="470" as="targetPoint" />
            <Array as="points">
              <mxPoint x="660" y="490" />
              <mxPoint x="726" y="490" />
            </Array>
          </mxGeometry>
        </mxCell>
        <mxCell id="8Ro6if_UnG99gxaWc1OO-41" value="" style="endArrow=classic;html=1;rounded=0;entryX=0.25;entryY=1;entryDx=0;entryDy=0;fillColor=#f5f5f5;strokeColor=#666666;" edge="1" parent="1" target="8Ro6if_UnG99gxaWc1OO-29">
          <mxGeometry width="50" height="50" relative="1" as="geometry">
            <mxPoint x="615" y="570" as="sourcePoint" />
            <mxPoint x="665" y="520" as="targetPoint" />
            <Array as="points">
              <mxPoint x="726" y="570" />
            </Array>
          </mxGeometry>
        </mxCell>
      </root>
    </mxGraphModel>
  </diagram>
</mxfile>
